PathFileType	4	(X/Y/Z)	Patient4_TMGait_0pt7_02_right_37.trc.trc
DataRate	CameraRate	NumFrames	NumMarkers	Units	OrigDataRate	OrigDataStartFrame	OrigNumFrames
87.500000000000	87.500000000000	4	33	mm	87.500000000000	89	       141
Frame#	Time	Sacral			L.Shoulder			Chest			R.Shoulder			Neck			R.ASIS			L.ASIS			R.Thigh.Superior			R.Thigh.Lateral			R.Thigh.Inferior			R.Patella			L.Thigh.Superior			L.Thigh.Lateral			L.Thigh.Inferior			L.Patella			L.Shank.Superior			L.Shank.Lateral			L.Shank.Inferior			R.Shank.Superior			R.Shank.Lateral			R.Shank.Inferior			R.Heel			R.Midfoot.Superior			R.Midfoot.Lateral			R.Toe			L.Heel			L.Midfoot.Lateral			L.Midfoot.Superior			L.Toe			L.Elbow			L.Wrist			R.Elbow			R.Wrist			
		X1	Y1	Z1	X2	Y2	Z2	X3	Y3	Z3	X4	Y4	Z4	X5	Y5	Z5	X6	Y6	Z6	X7	Y7	Z7	X8	Y8	Z8	X9	Y9	Z9	X10	Y10	Z10	X11	Y11	Z11	X12	Y12	Z12	X13	Y13	Z13	X14	Y14	Z14	X15	Y15	Z15	X16	Y16	Z16	X17	Y17	Z17	X18	Y18	Z18	X19	Y19	Z19	X20	Y20	Z20	X21	Y21	Z21	X22	Y22	Z22	X23	Y23	Z23	X24	Y24	Z24	X25	Y25	Z25	X26	Y26	Z26	X27	Y27	Z27	X28	Y28	Z28	X29	Y29	Z29	X30	Y30	Z30	X31	Y31	Z31	X32	Y32	Z32	X33	Y33	Z33	

89	42.805714285714	770.139744958914	1028.579134202170	425.162339921616	997.449581914648	1420.671267016914	227.058966381515	1090.879491553079	1350.997615358079	394.395437674282	1013.968908845956	1448.633873067042	559.506990362859	992.107352973199	1492.481086425001	378.855855519810	980.436150327255	944.316614702197	555.495371475111	986.110389162941	950.899195232352	281.836961492465	1030.527044206823	750.773335521393	545.170289977183	952.483208044652	642.686528434758	612.506465784091	1041.479870201640	583.272288128211	546.452993482381	1033.829068258213	472.223244172092	570.147804365158	1034.682014092629	755.477803510134	316.067729250863	957.524875283165	636.819523370816	254.700711996231	1044.624850539570	564.502627552947	323.821139529783	1049.093771022111	493.762504333547	332.975232783361	1021.051737684407	420.996319155579	325.070747241130	933.187150327450	306.719936559188	269.381785508627	978.940841634098	195.724645215535	345.795720998983	950.283928218169	409.589427661614	572.097474019175	821.584597891707	383.656304827367	624.364286350867	802.225655320422	274.830650399080	576.992650527823	596.621811384827	217.592854946815	534.189025953050	763.501790806265	168.410678789801	596.245015430680	650.490591098585	169.910928323665	619.584479648084	826.037534764666	61.567518637228	641.297269081169	846.748832442764	40.509308193492	378.964158953253	928.511681719819	36.199623342833	306.506753583992	1008.977880807187	96.445342247591	339.999912584631	1139.234720686327	42.389143432141	326.050049910859	909.478267950515	1072.931760269996	133.776557795480	937.618278077193	814.015854634417	165.956222847695	1039.487317902883	1114.672506214526	697.525641444825	1249.812380087170	1198.656865253347	598.830123490119	
90	42.817142857143	769.171825849434	1029.281023767647	423.202903642540	997.710510830772	1421.562916731347	225.550961034006	1089.975150125483	1352.040349126507	393.587452420365	1011.835735689138	1449.710815680181	558.212630265609	991.535089241826	1493.456489928576	377.167504054377	979.523987282678	945.522706767024	553.777889347722	985.396579302928	951.807588497437	280.352399701717	1033.114652131393	754.540559679033	542.728607685367	958.920927941359	645.538128865068	612.118272256488	1048.540538767436	587.564994054818	545.388376912618	1043.040818463233	475.586860324147	570.118307500722	1032.348504888369	754.992331471909	314.074894434651	953.432508016841	637.020886982206	253.336247956387	1040.085695615861	563.867796328107	322.013441002781	1043.749225738894	493.258711345482	331.416346343538	1015.334068737374	420.772714263352	323.818643879956	926.540350828593	306.934890566270	268.694516651918	971.864373079780	195.844645721249	345.280031153534	958.290481438319	413.051196118965	572.223735354420	828.526116963837	389.869012582980	623.309471737020	807.474227464008	281.299551729536	576.469955692138	601.316720475348	227.925108918862	531.904211966646	766.472085584561	175.791759538323	595.732151098654	653.341389117724	179.646477158516	618.103929684348	826.548482865396	67.831127300598	642.167606967584	838.827305397391	40.936287118889	378.965805981223	920.567031208938	36.404295858583	306.592901352947	1001.241462168360	96.469183779961	339.889352437210	1131.306052217248	41.951842025124	325.978755167860	918.942264433590	1072.485772740359	128.863548328263	958.109670814046	814.605946162717	159.424110876461	1026.432547843263	1114.703020393693	696.721026938071	1246.655736358260	1177.689423966708	602.187747394266	
91	42.828571428571	768.131389209638	1029.823155804956	421.327878066818	997.739432004119	1422.301152257493	224.148087147816	1088.917453250950	1352.941223839245	392.826822871387	1009.613631624747	1450.620396123577	556.969179203958	990.817924131897	1494.266250849903	375.582792889741	978.524933677266	946.600085653125	552.125860200429	984.659366017485	952.556352978580	278.936103111607	1035.384610726421	758.229192660811	540.224526952967	965.180396279314	648.494855588801	611.913235321589	1055.273685561979	591.957266858259	544.409136796412	1052.074768103027	479.143740979900	570.225682167359	1030.249453384642	754.542652952284	312.204440279278	949.577453488548	637.152980873929	252.111622582258	1035.855852618189	563.210849891947	320.290825691553	1038.745482616771	492.725792131734	330.006033663939	1009.911310668922	420.497479904756	322.704236758626	920.136777236156	307.175316302837	268.084347048268	964.919554199594	195.951457977514	344.831568946052	966.325371274853	416.547783836176	572.505743581870	835.721878360269	395.622639962954	622.582015127474	813.255416794332	287.325958740411	576.143855954892	606.689434451360	237.148316495209	530.126626595709	770.342414865146	182.571295985018	595.286728734682	657.199943221740	188.331076406377	616.908746522236	828.410048727186	73.847164597918	642.737957386224	830.901892366493	41.427224038266	378.970713425195	912.621523201643	36.642756217043	306.681098333929	993.509168876712	96.518049892627	339.795927913015	1123.369543017571	41.524184033469	325.914441286256	928.590797826501	1072.179977207996	123.990074965766	978.766930004065	815.841755324585	152.980788242999	1013.941402584495	1114.968904623335	695.729326878546	1242.470948875241	1155.206000823010	606.201987886229	
92	42.840000000000	767.047814884891	1030.212340561035	419.525258909594	997.549902565971	1422.897074478891	222.842486457118	1087.724056151280	1353.718797505948	392.108586538608	1007.310343400283	1451.373602264012	555.763825690256	989.963424242361	1494.918555061553	374.095073113862	977.444467254854	947.549104276069	550.566622921363	983.941325051567	953.174552312075	277.605958922254	1037.387082852925	761.826365647321	537.816672020348	971.179091978489	651.521606322436	611.896175400686	1061.686117733471	596.410829891699	543.622219912181	1060.878255024508	482.870626188197	570.519676963712	1028.334919599027	754.082446022378	310.449563877061	945.927216710989	637.225700564209	250.998265122884	1031.847440508465	562.520053256381	318.676535397034	1033.983002674904	492.154744647076	328.737422889391	1004.695972745885	420.168458078992	321.708995563679	913.913020805868	307.420142013130	267.536323698199	958.072275624164	196.039095746263	344.437771543469	974.363281067360	420.047579140086	572.958777155326	843.132741574684	400.823483337424	622.203005299273	819.577404084454	292.790629450036	576.032105174844	612.736309640925	245.092382249694	528.864818449612	775.161609633705	188.585438627080	594.953695554493	662.072460745203	195.782861440890	616.022982901656	831.693001712175	79.361472989527	643.057486931718	822.976008023480	41.961373235150	378.973456464546	904.680819617175	36.900437300843	306.763282625401	985.778526016279	96.586731429086	339.712790562543	1115.429783835964	41.120486972606	325.857196357495	938.332910753974	1072.046048383566	119.195416631851	999.488199336750	817.787729632012	146.658733205897	1002.137286208200	1115.392827669061	694.577741672101	1236.959950854681	1131.413605096588	610.833238082261	
